#N canvas 494 59 1671 1112 10;
#X obj 332 301 o.io.slipserial;
#X obj 610 40 tgl 15 0 empty empty empty 17 7 0 10 -262144 -1 -1 1
1;
#X floatatom 661 23 5 10 1000 0 - - -;
#X msg 139 160 /sys/renumber;
#X msg 207 128 /sys/reset;
#X floatatom 697 47 5 0 0 0 - - -;
#X obj 609 78 metro 100;
#X obj 333 343 mrpeach/unpackOSC;
#X floatatom 551 507 5 0 0 0 - - -;
#X floatatom 717 493 5 0 0 0 - - -;
#X floatatom 886 493 5 0 0 0 - - -;
#X obj 332 254 mrpeach/packOSC;
#X msg 455 240 devicename /dev/tty.usbserial-A30013Jp \, baud 115200
\, pollintervall 1;
#X obj 78 412 mrpeach/routeOSC /key/1;
#X obj 549 554 vsl 15 128 0 1023 0 0 empty empty empty 0 -9 0 10 -262144
-1 -1 9249 1;
#X msg 610 280 baud 115200;
#X obj 79 493 tgl 15 0 empty empty empty 17 7 0 10 -262144 -1 -1 1
1;
#X obj 237 413 mrpeach/routeOSC /key/2;
#X obj 236 461 tgl 15 0 empty empty empty 17 7 0 10 -262144 -1 -1 1
1;
#X obj 717 546 vsl 15 128 0 1023 0 0 empty empty empty 0 -9 0 10 -262144
-1 -1 5127 1;
#X obj 888 526 vsl 15 128 0 1023 0 0 empty empty empty 0 -9 0 10 -262144
-1 -1 3786 1;
#X obj 538 443 mrpeach/routeOSC /pot/1;
#X obj 723 447 mrpeach/routeOSC /pot/2;
#X obj 300 893 dac~;
#X obj 358 737 sel 0;
#X obj 204 711 sel 0;
#X msg 393 809 75 100;
#N canvas 1886 654 527 566 little 0;
#X obj -477 -1329 unpack f f;
#X obj -478 -1285 mtof;
#X obj -489 -1050 *~;
#X obj -478 -1240 sig~;
#X obj -358 -1092 vline~;
#X text -339 -1191 zero velocity == noteoff;
#X msg -330 -1142 0 \, 1 2;
#X obj -277 -1169 bang;
#X obj -275 -1142 delay 10;
#X msg -272 -1111 0;
#X obj -405 -1178 delay 1;
#X msg -441 -1172 0 1;
#X obj -395 -1145 pack 0 10;
#X obj -393 -1223 sel 0;
#X obj -498 -1119 osc~;
#X obj -489 -1184 *~ 2;
#X obj -498 -1090 *~ 0.1;
#X obj -489 -1004 outlet~;
#X obj -485 -1370 inlet;
#X connect 0 0 1 0;
#X connect 0 1 13 0;
#X connect 1 0 3 0;
#X connect 2 0 17 0;
#X connect 3 0 15 0;
#X connect 4 0 2 1;
#X connect 6 0 4 0;
#X connect 7 0 8 0;
#X connect 8 0 9 0;
#X connect 9 0 12 0;
#X connect 10 0 12 0;
#X connect 11 0 4 0;
#X connect 12 0 4 0;
#X connect 13 0 10 0;
#X connect 13 0 11 0;
#X connect 13 1 6 0;
#X connect 13 1 7 0;
#X connect 14 0 16 0;
#X connect 15 0 14 0;
#X connect 16 0 2 0;
#X connect 18 0 0 0;
#X restore 255 838 pd little;
#N canvas 1886 654 527 566 little 0;
#X obj -477 -1329 unpack f f;
#X obj -478 -1285 mtof;
#X obj -489 -1050 *~;
#X obj -478 -1240 sig~;
#X obj -358 -1092 vline~;
#X text -339 -1191 zero velocity == noteoff;
#X msg -330 -1142 0 \, 1 2;
#X obj -277 -1169 bang;
#X obj -275 -1142 delay 10;
#X msg -272 -1111 0;
#X obj -405 -1178 delay 1;
#X msg -441 -1172 0 1;
#X obj -395 -1145 pack 0 10;
#X obj -393 -1223 sel 0;
#X obj -498 -1119 osc~;
#X obj -489 -1184 *~ 2;
#X obj -498 -1090 *~ 0.1;
#X obj -489 -1004 outlet~;
#X obj -485 -1370 inlet;
#X connect 0 0 1 0;
#X connect 0 1 13 0;
#X connect 1 0 3 0;
#X connect 2 0 17 0;
#X connect 3 0 15 0;
#X connect 4 0 2 1;
#X connect 6 0 4 0;
#X connect 7 0 8 0;
#X connect 8 0 9 0;
#X connect 9 0 12 0;
#X connect 10 0 12 0;
#X connect 11 0 4 0;
#X connect 12 0 4 0;
#X connect 13 0 10 0;
#X connect 13 0 11 0;
#X connect 13 1 6 0;
#X connect 13 1 7 0;
#X connect 14 0 16 0;
#X connect 15 0 14 0;
#X connect 16 0 2 0;
#X connect 18 0 0 0;
#X restore 386 847 pd little;
#X obj 219 749 speedlim 20;
#X obj 380 773 speedlim 20;
#X obj 223 790 pack 100 100;
#X msg 474 276 pollintervall 1;
#X msg 96 187 /sys/ready;
#X obj 903 443 mrpeach/routeOSC /pot/3;
#X obj 368 156 random 8;
#X msg 363 187 send /led/* \$1;
#X connect 0 0 7 0;
#X connect 1 0 6 0;
#X connect 2 0 6 1;
#X connect 3 0 11 0;
#X connect 4 0 11 0;
#X connect 5 0 6 1;
#X connect 6 0 35 0;
#X connect 7 0 13 0;
#X connect 7 0 17 0;
#X connect 7 0 21 0;
#X connect 7 0 22 0;
#X connect 7 0 34 0;
#X connect 8 0 14 0;
#X connect 9 0 19 0;
#X connect 10 0 20 0;
#X connect 11 0 0 0;
#X connect 12 0 0 1;
#X connect 13 0 16 0;
#X connect 15 0 0 1;
#X connect 16 0 25 0;
#X connect 17 0 18 0;
#X connect 18 0 24 0;
#X connect 21 0 8 0;
#X connect 22 0 9 0;
#X connect 24 0 30 0;
#X connect 25 0 29 0;
#X connect 26 0 28 0;
#X connect 27 0 23 0;
#X connect 27 0 23 1;
#X connect 28 0 23 1;
#X connect 28 0 23 0;
#X connect 29 0 31 0;
#X connect 30 0 26 0;
#X connect 31 0 27 0;
#X connect 32 0 0 1;
#X connect 33 0 11 0;
#X connect 34 0 10 0;
#X connect 35 0 36 0;
#X connect 36 0 11 0;
